<?xml version="1.0" encoding="iso-8859-1"?>
<!-- Generator: Adobe Illustrator 19.0.0, SVG Export Plug-In . SVG Version: 6.00 Build 0)  -->
<svg version="1.1" id="Layer_1" xmlns="http://www.w3.org/2000/svg" xmlns:xlink="http://www.w3.org/1999/xlink" x="0px" y="0px"
	 viewBox="0 0 512 512" style="enable-background:new 0 0 512 512;" width="128px" height="128px" xml:space="preserve">
<path style="fill:#E0E0E2;" d="M511.856,191.897c-0.25-5.007-2.334-9.822-5.961-13.768C501.454,173.302,395.556,59.871,256,59.871
	S10.546,173.302,6.105,178.129c-3.628,3.946-5.711,8.76-5.961,13.768c-3.305,66.192,51.056,102.722,80.58,119.654h350.55
	C460.8,294.619,515.161,258.089,511.856,191.897z"/>
<path style="fill:#C6C5CA;" d="M78.445,194.64c0.25-5.007,2.334-9.822,5.961-13.768c4.117-4.476,95.457-102.294,219.969-116.523
	c-15.572-2.85-31.73-4.478-48.375-4.478c-139.557,0-245.454,113.431-249.895,118.258c-3.628,3.946-5.711,8.76-5.961,13.768
	c-3.305,66.192,51.056,102.722,80.58,119.654h73.605C124.111,293.562,75.308,257.462,78.445,194.64z"/>
<path style="fill:#003F8A;" d="M463.633,367.901l-32.562-46.503c-2.556-3.651-6.731-5.824-11.188-5.824H92.115
	c-4.455,0-8.632,2.174-11.188,5.824l-32.609,46.57c0,0,63.471,73.713,207.68,73.713
	C394.484,441.681,463.633,367.901,463.633,367.901z"/>
<path style="fill:#003068;" d="M158.859,315.572H92.115c-4.456,0-8.632,2.173-11.188,5.824l-32.558,46.498
	c0,0,60.728,49.667,66.907,37.003L158.859,315.572z"/>
<path style="fill:#FFE477;" d="M469.312,376.01l-5.682-8.116c-15.124,11.01-83.71,55.325-207.634,55.325
	c-127.349,0-192.387-43.436-207.694-55.228l-5.614,8.018c-3.976,5.678-3.068,13.434,2.113,18.04
	c2.669,2.371,66.99,58.08,211.199,58.08c138.486,0,207.876-55.35,210.763-57.708C472.302,389.9,473.414,381.868,469.312,376.01z"/>
<path style="fill:#FFD422;" d="M116.483,402.151c-37.961-12.854-60.064-28.005-68.181-34.257l-5.614,8.018
	c-3.976,5.678-3.068,13.434,2.113,18.04c1.423,1.264,20.395,17.705,59.669,32.771L116.483,402.151z"/>
<path style="fill:#FFDA44;" d="M431.275,329.127H80.725c-9.706,0-17.574-7.869-17.574-17.574s7.869-17.574,17.574-17.574h350.55
	c9.706,0,17.574,7.869,17.574,17.574S440.98,329.127,431.275,329.127z"/>
<path style="fill:#FFCD00;" d="M132.114,311.552c0-9.706,7.869-17.574,17.574-17.574H80.725c-9.706,0-17.574,7.869-17.574,17.574
	s7.869,17.574,17.574,17.574h68.963C139.983,329.127,132.114,321.257,132.114,311.552z"/>
<circle style="fill:#003F8A;" cx="256" cy="188.375" r="78.3"/>
<path style="fill:#FFE477;" d="M298.842,187.531c-4.329,0-7.837,3.508-7.837,7.837c0,16.608-11.629,30.54-27.168,34.11v-51.71
	c9.499-3.264,16.347-12.281,16.347-22.873c0-13.336-10.849-24.185-24.184-24.185s-24.184,10.849-24.184,24.185
	c0,10.592,6.848,19.61,16.347,22.873v51.71c-15.54-3.569-27.168-17.502-27.168-34.11c0-4.329-3.508-7.837-7.837-7.837
	c-4.329,0-7.837,3.508-7.837,7.837c0,27.944,22.735,50.679,50.679,50.679s50.679-22.735,50.679-50.679
	C306.678,191.04,303.171,187.531,298.842,187.531z M256,146.383c4.693,0,8.511,3.818,8.511,8.512c0,4.694-3.817,8.511-8.511,8.511
	s-8.511-3.817-8.511-8.511C247.489,150.201,251.307,146.383,256,146.383z"/>
<g>
	<path style="fill:#C6C5CA;" d="M474.899,222.478c-4.163-1.187-6.421-5.702-5.119-9.829c2.067-6.558,3.088-13.539,3.035-20.749
		c-0.03-4.328,3.452-7.861,7.78-7.893c0.019,0,0.038,0,0.057,0c4.302,0,7.804,3.471,7.836,7.78
		c0.064,8.847-1.201,17.451-3.761,25.572C483.675,220.702,480.13,223.969,474.899,222.478z"/>
	<path style="fill:#C6C5CA;" d="M422.637,275.162c-2.373-3.621-1.394-8.472,2.217-10.859c14.435-9.54,25.267-19.162,33.111-29.417
		c2.63-3.437,7.549-4.094,10.986-1.463c3.438,2.63,4.093,7.548,1.463,10.986c-8.924,11.667-21.001,22.452-36.919,32.971
		C432.165,278.259,426.579,281.177,422.637,275.162z"/>
</g>
<g>
</g>
<g>
</g>
<g>
</g>
<g>
</g>
<g>
</g>
<g>
</g>
<g>
</g>
<g>
</g>
<g>
</g>
<g>
</g>
<g>
</g>
<g>
</g>
<g>
</g>
<g>
</g>
<g>
</g>
</svg>
